<?xml version="1.0" encoding="utf-8"?>
<!-- Generator: Adobe Illustrator 25.0.0, SVG Export Plug-In . SVG Version: 6.00 Build 0)  -->
<svg version="1.1" id="图层_1" xmlns="http://www.w3.org/2000/svg" xmlns:xlink="http://www.w3.org/1999/xlink" x="0px" y="0px"
	 viewBox="0 0 86 12" style="enable-background:new 0 0 86 12;" xml:space="preserve">
<style type="text/css">
	.st0{fill:#13B5B1;}
</style>
<rect y="5" class="st0" width="16" height="1"/>
<rect x="28" y="5" class="st0" width="58" height="1"/>
<rect x="16" y="6" class="st0" width="1" height="1"/>
<rect x="17" y="7" class="st0" width="1" height="1"/>
<rect x="25" y="3" class="st0" width="1" height="1"/>
<rect x="26" y="4" class="st0" width="1" height="1"/>
<rect x="22" y="4" transform="matrix(-1 -4.547486e-11 4.547486e-11 -1 45 9)" class="st0" width="1" height="1"/>
<rect x="21" y="5" transform="matrix(-1 -4.456536e-11 4.456536e-11 -1 43 11)" class="st0" width="1" height="1"/>
<rect x="24" y="2" transform="matrix(-1 -4.547486e-11 4.547486e-11 -1 49 5)" class="st0" width="1" height="1"/>
<rect x="23" y="3" transform="matrix(-1 -4.456536e-11 4.456536e-11 -1 47 7)" class="st0" width="1" height="1"/>
<rect x="27" y="5" transform="matrix(-1 -4.456536e-11 4.456536e-11 -1 55 11)" class="st0" width="1" height="1"/>
<rect x="20" y="6" transform="matrix(-1 -4.456536e-11 4.456536e-11 -1 41 13)" class="st0" width="1" height="1"/>
<rect x="19" y="7" transform="matrix(-1 -4.547486e-11 4.547486e-11 -1 39 15)" class="st0" width="1" height="1"/>
<rect x="18" y="8" transform="matrix(-1 -4.456536e-11 4.456536e-11 -1 37 17)" class="st0" width="1" height="1"/>
</svg>
